<svg width="20" height="20" viewBox="0 0 20 20" fill="none" xmlns="http://www.w3.org/2000/svg">
<g id="002-url">
<path id="Path" d="M7.4077 5.01207C5.05216 7.44921 5.56618 11.4937 8.26442 13.2854C8.35333 13.3445 8.47161 13.3328 8.54798 13.2582C9.11602 12.7031 9.59657 12.1655 10.0174 11.4817C10.0817 11.3771 10.0417 11.2414 9.93368 11.1829C9.52212 10.9599 9.11259 10.5418 8.88204 10.1002L8.88177 10.1003C8.60559 9.55042 8.51157 8.93398 8.65778 8.29734C8.65794 8.29738 8.65809 8.29742 8.65825 8.29742C8.82649 7.48234 9.70153 6.72414 10.3698 6.02293C10.3684 6.02246 10.3671 6.02195 10.3657 6.02148L12.8697 3.46578C13.8676 2.44731 15.509 2.43891 16.5172 3.44715C17.5357 4.445 17.5525 6.09468 16.5546 7.11312L15.0379 8.67281C14.9677 8.74499 14.945 8.85031 14.9778 8.9455C15.327 9.9582 15.4129 11.3861 15.1789 12.465C15.1723 12.4951 15.2096 12.5149 15.2312 12.4928L18.4593 9.19816C20.5214 7.09347 20.5039 3.66676 18.4204 1.58324C16.2941 -0.543044 12.8326 -0.525348 10.7281 1.6225L7.42063 4.99824C7.41626 5.00285 7.41212 5.00754 7.4077 5.01207V5.01207Z" fill="#4B6A9B"/>
<path id="Path_2" d="M13.439 13.7501C13.4389 13.7502 13.4388 13.7503 13.4388 13.7505C13.4409 13.7496 13.4428 13.7488 13.4449 13.7479C14.1036 12.5432 14.2333 11.1616 13.9246 9.8148L13.9232 9.81625L13.9217 9.81559C13.6285 8.61602 12.8241 7.42485 11.7316 6.69145C11.6376 6.62836 11.4875 6.63567 11.3995 6.70684C10.8461 7.1543 10.3044 7.72809 9.94697 8.46031C9.89083 8.57527 9.93287 8.71336 10.0435 8.77758C10.4583 9.0184 10.8329 9.37098 11.0837 9.83906L11.0841 9.83879C11.2796 10.1695 11.4722 10.7969 11.3474 11.471C11.3474 11.471 11.3472 11.471 11.3472 11.471C11.2308 12.3648 10.3282 13.1846 9.61068 13.9234L9.61103 13.9237C9.06486 14.4823 7.67646 15.8976 7.12052 16.4656C6.12267 17.4841 4.47299 17.5009 3.45455 16.503C2.43612 15.5052 2.41928 13.8555 3.41713 12.8371L4.93834 11.2727C5.00728 11.2018 5.03072 11.0987 5.00006 11.0047C4.66229 9.96836 4.56975 8.57262 4.78295 7.495C4.78889 7.46496 4.75193 7.44578 4.73049 7.46766L1.551 10.7128C-0.53228 12.8391 -0.514624 16.3009 1.5903 18.4058C3.71647 20.489 7.16049 20.4538 9.24369 18.3276C9.9674 17.5181 13.0654 14.6498 13.439 13.7501V13.7501Z" fill="#4B6A9B"/>
</g>
</svg>
